<?xml version="1.0" ?>
<!-- Uploaded to: SVG Repo, www.svgrepo.com, Generator: SVG Repo Mixer Tools -->
<svg width="800px" height="800px" viewBox="0 0 32 32" xmlns="http://www.w3.org/2000/svg">
<defs>
<style>.cls-1{fill:#ff005c;}</style>
</defs>
<title/>
<g id="Blood">
<path d="M16.86,3.4h-1.6l-.52.71c-.3.43-.73,1-1.22,1.8-2.78,4.21-7.72,12.74-6.23,18.2a6.62,6.62,0,0,0,.43,1.15,5.78,5.78,0,0,0,1,1.45c1.48,1.52,3.86,2.29,7.1,2.29,4.31,0,7.13-1.3,8.41-3.85C27.79,18.1,17.31,4,16.86,3.4Zm5.61,20.86C21.56,26.08,19.33,27,15.85,27a14.58,14.58,0,0,1-1.95-.12,5.65,5.65,0,0,1-4.07-2,2.72,2.72,0,0,1-.32-.51c-1.94-3.88,2-11.62,5.16-16.56.43-.68.84-1.3,1.22-1.85l.17-.24C19.2,10.2,24.73,19.74,22.47,24.26Z"/>
<path class="cls-1" d="M22.47,24.26C21.56,26.08,19.33,27,15.85,27a14.58,14.58,0,0,1-1.95-.12c3.17-.35,5.3-1.61,6.36-3.73,2.32-4.63-1.41-12.31-4.37-17.2l.17-.24C19.2,10.2,24.73,19.74,22.47,24.26Z"/>
</g>
</svg>